<?xml version="1.0" standalone="no"?>
<!DOCTYPE svg PUBLIC "-//W3C//DTD SVG 20010904//EN"
 "http://www.w3.org/TR/2001/REC-SVG-20010904/DTD/svg10.dtd">
<svg version="1.0" xmlns="http://www.w3.org/2000/svg"
 width="619.000000pt" height="516.000000pt" viewBox="0 0 619.000000 516.000000"
 preserveAspectRatio="xMidYMid meet">

<g transform="translate(0.000000,516.000000) scale(0.100000,-0.100000)"
fill="#185560" stroke="none">
<path d="M3600 4899 c-390 -52 -750 -155 -1070 -306 -47 -22 -95 -44 -107 -47
-13 -4 -23 -12 -23 -17 0 -5 -9 -9 -20 -9 -11 0 -20 -4 -20 -10 0 -12 15 -13
38 -1 65 33 326 129 412 151 19 5 53 14 75 20 295 78 651 108 895 76 134 -18
290 -55 365 -85 394 -161 627 -437 711 -846 22 -105 22 -385 1 -505 -37 -205
-65 -299 -149 -510 -179 -446 -546 -943 -973 -1319 -268 -235 -486 -392 -785
-564 -45 -26 -313 -159 -365 -182 -22 -9 -49 -21 -60 -26 -42 -18 -182 -71
-220 -84 -167 -55 -219 -68 -425 -114 -230 -50 -583 -60 -790 -22 -140 25
-220 48 -325 91 -188 78 -360 209 -482 369 -21 27 -15 -5 9 -46 74 -129 226
-290 346 -367 201 -130 432 -204 722 -233 141 -13 190 -14 335 -4 145 10 284
29 422 57 26 5 39 0 79 -30 85 -65 206 -115 319 -131 77 -12 2216 -14 2315 -3
177 20 296 75 418 192 87 83 143 173 183 296 l24 75 0 1410 c0 1144 -3 1418
-13 1450 -43 129 -93 219 -173 312 -15 17 -30 46 -34 65 -21 104 -101 280
-177 388 -130 184 -352 344 -593 428 -91 31 -228 62 -345 78 -115 15 -415 17
-520 3z m1705 -1411 c3 -29 5 -647 3 -1373 l-3 -1320 -22 -63 c-46 -135 -153
-258 -278 -321 -124 -63 -73 -60 -1310 -60 -1180 0 -1189 0 -1288 42 -64 27
-62 29 158 102 61 21 114 41 120 46 5 5 15 9 22 9 7 0 38 12 70 26 32 15 86
40 121 55 l63 29 907 0 c1003 0 975 -2 1049 63 77 68 73 7 73 979 l0 866 45
97 c134 287 188 463 231 753 9 67 21 122 25 122 4 0 10 -24 14 -52z"/>
</g>

<g transform="translate(0.000000,516.000000) scale(0.100000,-0.100000)"
fill="#185560" stroke="none">
<path d="M3086 4295 c-41 -14 -116 -80 -116 -102 0 -7 -9 -22 -20 -33 -19 -19
-33 -20 -234 -20 -165 0 -229 -4 -277 -16 -168 -43 -326 -159 -413 -302 -44
-73 -85 -178 -97 -252 -10 -60 -13 -2712 -3 -2782 7 -55 33 -138 43 -138 17 0
127 32 134 39 4 4 -1 25 -10 47 -17 37 -18 122 -21 1399 -2 985 0 1377 8 1420
17 89 74 196 141 264 76 78 129 113 217 145 71 25 81 26 294 26 l220 0 41 -46
c67 -76 151 -101 250 -73 47 13 102 60 128 110 26 52 26 156 -1 208 -51 100
-173 146 -284 106z m152 -133 c38 -35 48 -73 32 -113 -31 -73 -114 -92 -172
-40 -28 25 -33 36 -33 76 0 42 4 51 35 76 47 39 97 39 138 1z"/>
</g>

<g transform="translate(0.000000,516.000000) scale(0.100000,-0.100000)"
fill="#185560" stroke="none">
<path d="M4120 4284 c-137 -59 -180 -241 -83 -354 48 -56 99 -80 171 -80 79 0
147 34 187 95 l30 45 138 0 c156 0 149 -5 118 90 l-18 55 -111 3 -111 3 -30
42 c-38 56 -69 83 -113 102 -47 19 -132 19 -178 -1z m124 -109 c93 -39 94
-161 0 -200 -30 -12 -40 -13 -68 -1 -42 18 -76 61 -76 98 0 48 46 99 106 118
1 0 18 -7 38 -15z"/>
</g>
//200, 56, 48
<g transform="translate(0.000000,516.000000) scale(0.100000,-0.100000)"
fill="#c83830" stroke="none">
<path d="M2559 3671 c-85 -17 -147 -83 -168 -179 -16 -75 -16 -2584 0 -2648
10 -37 15 -44 35 -44 13 0 32 4 42 9 9 5 74 37 144 70 70 34 177 90 239 126
61 36 114 65 116 65 3 0 34 20 70 45 35 25 66 45 68 45 3 0 31 20 64 45 32 25
65 45 72 45 34 0 -11 19 -51 22 l-45 3 0 75 0 75 167 5 167 5 66 58 c57 49 63
57 43 58 -13 1 -27 2 -33 4 -5 1 -101 3 -212 3 l-203 2 0 75 0 75 28 0 c15 0
160 2 322 3 l295 2 45 49 c25 27 45 54 45 60 0 8 -106 12 -365 16 l-365 5 -3
73 -3 72 435 0 c241 0 446 4 459 9 21 8 97 98 97 115 0 3 -222 7 -492 8 l-493
3 0 75 0 75 557 3 558 2 36 55 c21 31 35 58 32 60 -3 3 -260 5 -572 5 -311 0
-577 2 -591 6 -24 6 -25 10 -25 80 l0 74 623 0 624 0 10 -22 c9 -20 12 -16 45
43 131 235 234 515 277 759 17 93 28 319 17 330 -12 12 -2120 12 -2177 1z
m471 -500 c0 -10 -47 -65 -128 -151 l-42 -45 -50 53 c-64 68 -77 92 -53 92 10
0 36 -12 58 -25 22 -14 45 -25 50 -25 6 0 41 25 78 55 67 54 87 64 87 46z
m1358 -53 c7 -7 12 -39 12 -75 0 -57 -2 -63 -22 -68 -13 -3 -295 -4 -628 -3
l-605 3 -3 64 c-2 35 -1 70 2 77 7 19 1225 21 1244 2z m-1358 -196 c0 -17
-156 -192 -171 -192 -10 0 -109 119 -109 131 0 16 24 10 62 -16 20 -14 42 -25
48 -25 6 0 43 25 83 55 71 54 87 63 87 47z m1364 -98 c3 -9 6 -37 6 -64 0 -86
44 -80 -608 -80 -317 0 -594 3 -614 6 l-38 7 0 73 0 74 624 0 c560 0 624 -2
630 -16z m-1364 -223 c0 -14 -161 -181 -175 -181 -7 0 -20 10 -28 23 -9 12
-29 38 -46 57 -17 19 -31 40 -31 47 0 15 38 5 69 -19 35 -27 49 -23 121 32 62
47 90 60 90 41z m-109 -321 c16 -9 19 -22 19 -78 0 -40 -5 -73 -12 -80 -19
-19 -202 -16 -222 4 -24 23 -22 139 2 153 22 14 188 14 213 1z m109 -227 c0
-5 -12 -21 -26 -38 -85 -99 -136 -155 -144 -155 -16 0 -121 135 -109 139 7 2
35 -9 64 -24 l51 -28 74 56 c71 55 90 65 90 50z m-95 -418 l0 -80 -109 -3
c-71 -2 -113 1 -122 9 -18 15 -19 130 -2 147 9 9 46 12 123 10 l110 -3 0 -80z
m11 -231 c6 -33 1 -121 -7 -128 -10 -9 -206 -16 -218 -8 -16 11 -24 128 -10
155 8 15 25 17 119 17 l109 0 7 -36z"/>
</g>

</svg>
